<?xml version="1.0" encoding="UTF-8" standalone="no"?>
<!-- Created with Inkscape (http://www.inkscape.org/) -->

<svg
   width="117.63554mm"
   height="66.355125mm"
   viewBox="0 0 117.63554 66.355125"
   version="1.1"
   id="svg1"
   xml:space="preserve"
   xmlns="http://www.w3.org/2000/svg"
   xmlns:svg="http://www.w3.org/2000/svg"><defs
     id="defs1" /><g
     id="layer1"
     transform="translate(-17.842007,-115.18965)"><path
       d="M 77.560286,141.54217 H 56.856947 a 1.8827408,1.8827408 0 0 1 -1.882011,-1.88176 v -21.57683 c 0,-1.59782 -1.295627,-2.89394 -2.892728,-2.89394 h -7.390565 c -1.598072,0 -2.892973,1.29612 -2.892973,2.89394 v 21.44617 c 0,1.11266 -0.899518,2.01705 -2.012175,2.02191 l -6.784735,0.0324 c -1.12215,0.006 -2.033832,-0.90439 -2.031643,-2.02556 l 0.04208,-21.47002 c 0.0032,-1.60025 -1.292477,-2.8988 -2.892728,-2.8988 H 20.73498 c -1.598307,0 -2.892973,1.29612 -2.892973,2.89394 v 60.41802 c 0,1.41948 1.149894,2.56937 2.568156,2.56937 h 57.150106 c 1.41948,0 2.569363,-1.14989 2.569363,-2.56937 v -34.39007 c 0,-1.41947 -1.149883,-2.56936 -2.569363,-2.56936 z m -9.708603,22.68462 c 0,1.86011 -1.508039,3.36839 -3.368148,3.36839 h -5.840686 c -1.860354,0 -3.368394,-1.50828 -3.368394,-3.36839 v -5.84069 c 0,-1.86035 1.50804,-3.36839 3.368394,-3.36839 h 5.840686 c 1.860109,0 3.368148,1.50804 3.368148,3.36839 z"
       fill="#ff6600"
       id="path1"
       style="stroke-width:0.243311" /><path
       d="m 126.86205,152.06059 c -2.57364,0 -4.88095,1.14022 -6.46098,2.93538 l -4.04873,-2.86622 c 0.42979,-1.18331 0.67656,-2.45391 0.67656,-3.78382 0,-1.30686 -0.23819,-2.55616 -0.65382,-3.72198 l 4.03966,-2.83584 c 1.57987,1.78609 3.88114,2.92011 6.44731,2.92011 4.75026,0 8.6155,-3.8646 8.6155,-8.61549 0,-4.7509 -3.86524,-8.6155 -8.6155,-8.6155 -4.75025,0 -8.61549,3.8646 -8.61549,8.6155 0,0.85035 0.12847,1.67034 0.35903,2.44692 l -4.04237,2.83727 c -1.68862,-2.09488 -4.11996,-3.55756 -6.89015,-4.00405 v -4.87189 c 3.90262,-0.81967 6.84309,-4.28708 6.84309,-8.43026 0,-4.75089 -3.86524,-8.61549 -8.61552,-8.61549 -4.75029,0 -8.61553,3.8646 -8.61553,8.61549 0,4.08769 2.86431,7.51232 6.68886,8.39051 v 4.93517 c -5.2195,0.91619 -9.201606,5.47135 -9.201606,10.94953 0,5.50489 4.021539,10.07674 9.278726,10.96176 v 5.21121 c -3.86367,0.84924 -6.76598,4.29487 -6.76598,8.41038 0,4.75089 3.86524,8.61549 8.61553,8.61549 4.75028,0 8.61552,-3.8646 8.61552,-8.61549 0,-4.11551 -2.90231,-7.56114 -6.76597,-8.41038 v -5.21137 a 11.124743,11.124743 0 0 0 6.7736,-3.93949 l 4.07576,2.88481 c -0.22626,0.76959 -0.35299,1.58146 -0.35299,2.42323 0,4.75089 3.86524,8.6155 8.61549,8.6155 4.75026,0 8.6155,-3.86461 8.6155,-8.6155 0,-4.75089 -3.86524,-8.61549 -8.6155,-8.61549 z m 0,-20.14507 c 2.3035,0 4.17705,1.87435 4.17705,4.17721 0,2.30286 -1.87355,4.17704 -4.17705,4.17704 -2.30349,0 -4.17704,-1.87418 -4.17704,-4.17704 0,-2.30286 1.87355,-4.17721 4.17704,-4.17721 z m -25.13864,-7.8448 c 0,-2.30286 1.87372,-4.17704 4.17723,-4.17704 2.30351,0 4.17707,1.87418 4.17707,4.17704 0,2.30286 -1.87356,4.17705 -4.17707,4.17705 -2.30351,0 -4.17723,-1.87419 -4.17723,-4.17705 z m 8.3543,48.85856 c 0,2.30286 -1.87356,4.17704 -4.17707,4.17704 -2.30351,0 -4.17723,-1.87418 -4.17723,-4.17704 0,-2.30286 1.87372,-4.17705 4.17723,-4.17705 2.30351,0 4.17707,1.87419 4.17707,4.17705 z m -4.17739,-18.75775 c -3.2127,0 -5.82627,-2.61308 -5.82627,-5.8256 0,-3.21269 2.61357,-5.82624 5.82627,-5.82624 3.21254,0 5.8261,2.61355 5.8261,5.82624 0,3.21252 -2.61356,5.8256 -5.8261,5.8256 z m 20.96173,10.68176 c -2.30349,0 -4.17704,-1.87435 -4.17704,-4.17721 0,-2.30286 1.87355,-4.17704 4.17704,-4.17704 2.3035,0 4.17705,1.87418 4.17705,4.17704 0,2.30286 -1.87355,4.17721 -4.17705,4.17721 z"
       style="fill:#231f20;stroke-width:0.159004"
       id="path1-6" /></g></svg>
