<?xml version="1.0" encoding="UTF-8" standalone="no"?>
<!-- Created with Inkscape (http://www.inkscape.org/) -->

<svg
   width="553.73486"
   height="187.27965"
   viewBox="0 0 146.50901 49.551075"
   version="1.1"
   id="svg1"
   xml:space="preserve"
   xmlns="http://www.w3.org/2000/svg"
   xmlns:svg="http://www.w3.org/2000/svg"><defs
     id="defs1"><rect
       x="247.97112"
       y="92.717705"
       width="396.31635"
       height="135.13898"
       id="rect3" /></defs><g
     id="layer1"
     transform="translate(-13.057987,-15.438867)"><g
       style="fill:#000000"
       id="g1"
       transform="matrix(0.87078359,0,0,0.87078359,10.881027,17.096843)"><path
         d="M 52.354,8.51 C 51.196,4.22 42.577,0 27.5,0 12.423,0 3.803,4.22 2.646,8.51 2.562,8.657 2.5,8.818 2.5,9 V 9.5 21 21.5 22 33 33.5 34 46 c 0,0.162 0.043,0.315 0.117,0.451 C 3.798,51.346 14.364,55 27.5,55 40.606,55 51.155,51.361 52.375,46.484 52.455,46.341 52.5,46.176 52.5,46 V 34 33.5 33 22 21.5 21 9.5 9 c 0,-0.182 -0.062,-0.343 -0.146,-0.49 z m -1.933,25.475 c -0.028,0.121 -0.067,0.241 -0.116,0.363 -0.04,0.099 -0.089,0.198 -0.143,0.297 -0.067,0.123 -0.142,0.246 -0.231,0.369 -0.066,0.093 -0.141,0.185 -0.219,0.277 -0.111,0.131 -0.229,0.262 -0.363,0.392 -0.081,0.079 -0.17,0.157 -0.26,0.236 -0.164,0.143 -0.335,0.285 -0.526,0.426 -0.082,0.061 -0.17,0.12 -0.257,0.18 -0.226,0.156 -0.462,0.311 -0.721,0.463 -0.068,0.041 -0.141,0.08 -0.212,0.12 -0.298,0.168 -0.609,0.335 -0.945,0.497 -0.043,0.021 -0.088,0.041 -0.132,0.061 -0.375,0.177 -0.767,0.351 -1.186,0.519 -0.012,0.005 -0.024,0.009 -0.036,0.014 -2.271,0.907 -5.176,1.67 -8.561,2.17 -0.017,0.002 -0.034,0.004 -0.051,0.007 -0.658,0.097 -1.333,0.183 -2.026,0.259 -0.113,0.012 -0.232,0.02 -0.346,0.032 -0.605,0.063 -1.217,0.121 -1.847,0.167 -0.288,0.021 -0.59,0.031 -0.883,0.049 -0.474,0.028 -0.943,0.059 -1.429,0.076 C 29.137,40.984 28.327,41 27.5,41 26.673,41 25.863,40.984 25.068,40.956 24.582,40.939 24.113,40.907 23.639,40.88 23.346,40.863 23.044,40.852 22.756,40.831 22.126,40.785 21.514,40.727 20.909,40.664 20.795,40.652 20.676,40.644 20.563,40.632 19.87,40.556 19.195,40.469 18.537,40.373 18.52,40.371 18.503,40.369 18.486,40.366 15.101,39.866 12.196,39.103 9.925,38.196 9.913,38.192 9.901,38.187 9.889,38.182 9.47,38.014 9.077,37.84 8.703,37.663 8.66,37.642 8.614,37.622 8.571,37.602 8.235,37.44 7.924,37.274 7.626,37.105 7.556,37.065 7.482,37.026 7.414,36.985 7.155,36.833 6.919,36.678 6.693,36.522 6.607,36.462 6.518,36.403 6.436,36.342 6.245,36.201 6.074,36.059 5.91,35.916 5.821,35.838 5.731,35.76 5.65,35.68 5.516,35.55 5.398,35.42 5.287,35.288 5.209,35.196 5.134,35.104 5.068,35.011 4.98,34.888 4.905,34.765 4.837,34.642 4.783,34.543 4.735,34.444 4.694,34.345 4.645,34.224 4.606,34.103 4.578,33.982 4.541,33.823 4.5,33.661 4.5,33.5 4.5,33.387 4.513,33.274 4.531,33.162 4.556,33.011 4.542,32.86 4.5,32.717 v -7.424 c 0.028,0.026 0.063,0.051 0.092,0.077 0.218,0.192 0.44,0.383 0.69,0.567 C 9.049,28.786 16.582,31 27.5,31 c 10.872,0 18.386,-2.196 22.169,-5.028 0.302,-0.22 0.574,-0.447 0.83,-0.678 L 50.5,25.293 v 7.424 c -0.042,0.143 -0.056,0.294 -0.031,0.445 0.019,0.112 0.031,0.225 0.031,0.338 0,0.161 -0.041,0.323 -0.079,0.485 z M 50.5,13.293 v 7.424 c -0.042,0.143 -0.056,0.294 -0.031,0.445 0.019,0.112 0.031,0.225 0.031,0.338 0,0.161 -0.041,0.323 -0.079,0.485 -0.028,0.121 -0.067,0.241 -0.116,0.363 -0.04,0.099 -0.089,0.198 -0.143,0.297 -0.067,0.123 -0.142,0.246 -0.231,0.369 -0.066,0.093 -0.141,0.185 -0.219,0.277 -0.111,0.131 -0.229,0.262 -0.363,0.392 -0.081,0.079 -0.17,0.157 -0.26,0.236 -0.164,0.143 -0.335,0.285 -0.526,0.426 -0.082,0.061 -0.17,0.12 -0.257,0.18 -0.226,0.156 -0.462,0.311 -0.721,0.463 -0.068,0.041 -0.141,0.08 -0.212,0.12 -0.298,0.168 -0.609,0.335 -0.945,0.497 -0.043,0.021 -0.088,0.041 -0.132,0.061 -0.375,0.177 -0.767,0.351 -1.186,0.519 -0.012,0.005 -0.024,0.009 -0.036,0.014 -2.271,0.907 -5.176,1.67 -8.561,2.17 -0.017,0.002 -0.034,0.004 -0.051,0.007 -0.658,0.097 -1.333,0.183 -2.026,0.259 -0.113,0.012 -0.232,0.02 -0.346,0.032 -0.605,0.063 -1.217,0.121 -1.847,0.167 -0.288,0.021 -0.59,0.031 -0.883,0.049 -0.474,0.028 -0.943,0.059 -1.429,0.076 C 29.137,28.984 28.327,29 27.5,29 26.673,29 25.863,28.984 25.068,28.956 24.582,28.939 24.113,28.907 23.639,28.88 23.346,28.863 23.044,28.852 22.756,28.831 22.126,28.785 21.514,28.727 20.909,28.664 20.795,28.652 20.676,28.644 20.563,28.632 19.87,28.556 19.195,28.469 18.537,28.373 18.52,28.371 18.503,28.369 18.486,28.366 15.101,27.866 12.196,27.103 9.925,26.196 9.913,26.192 9.901,26.187 9.889,26.182 9.47,26.014 9.077,25.84 8.703,25.663 8.66,25.642 8.614,25.622 8.571,25.602 8.235,25.44 7.924,25.274 7.626,25.105 7.556,25.065 7.482,25.026 7.414,24.985 7.155,24.833 6.919,24.678 6.693,24.522 6.607,24.462 6.518,24.403 6.436,24.342 6.245,24.201 6.074,24.059 5.91,23.916 5.821,23.838 5.731,23.76 5.65,23.68 5.516,23.55 5.398,23.42 5.287,23.288 5.209,23.196 5.134,23.104 5.068,23.011 4.98,22.888 4.905,22.765 4.837,22.642 4.783,22.543 4.735,22.444 4.694,22.345 4.645,22.224 4.606,22.103 4.578,21.982 4.541,21.823 4.5,21.661 4.5,21.5 4.5,21.387 4.513,21.274 4.531,21.162 4.556,21.011 4.542,20.86 4.5,20.717 v -7.424 c 0.12,0.109 0.257,0.216 0.387,0.324 0.072,0.06 0.139,0.12 0.215,0.18 0.3,0.236 0.624,0.469 0.975,0.696 0.073,0.047 0.155,0.093 0.231,0.14 0.294,0.183 0.605,0.362 0.932,0.538 0.121,0.065 0.242,0.129 0.367,0.193 0.365,0.186 0.748,0.367 1.151,0.542 0.066,0.029 0.126,0.059 0.193,0.087 0.469,0.199 0.967,0.389 1.485,0.573 0.143,0.051 0.293,0.099 0.44,0.149 0.412,0.139 0.838,0.272 1.279,0.401 0.159,0.046 0.315,0.094 0.478,0.138 0.585,0.162 1.189,0.316 1.823,0.458 0.087,0.02 0.181,0.036 0.269,0.055 0.559,0.122 1.139,0.235 1.735,0.341 0.202,0.036 0.407,0.07 0.613,0.104 0.567,0.093 1.151,0.178 1.75,0.256 0.154,0.02 0.301,0.043 0.457,0.062 0.744,0.09 1.514,0.167 2.305,0.233 0.195,0.016 0.398,0.028 0.596,0.042 0.633,0.046 1.28,0.084 1.942,0.114 0.241,0.011 0.481,0.022 0.727,0.031 0.862,0.029 1.74,0.05 2.65,0.05 0.91,0 1.788,-0.021 2.65,-0.05 0.245,-0.009 0.485,-0.02 0.727,-0.031 0.662,-0.03 1.309,-0.068 1.942,-0.114 0.198,-0.015 0.4,-0.026 0.596,-0.042 0.791,-0.065 1.561,-0.143 2.305,-0.233 0.156,-0.019 0.303,-0.042 0.457,-0.062 0.599,-0.078 1.182,-0.163 1.75,-0.256 0.206,-0.034 0.411,-0.068 0.613,-0.104 0.596,-0.106 1.176,-0.219 1.735,-0.341 0.088,-0.019 0.182,-0.036 0.269,-0.055 0.634,-0.142 1.238,-0.297 1.823,-0.458 0.163,-0.045 0.319,-0.092 0.478,-0.138 0.441,-0.129 0.867,-0.262 1.279,-0.401 0.147,-0.05 0.297,-0.098 0.44,-0.149 0.518,-0.184 1.017,-0.374 1.485,-0.573 0.067,-0.028 0.127,-0.058 0.193,-0.087 0.403,-0.176 0.786,-0.356 1.151,-0.542 0.125,-0.064 0.247,-0.128 0.367,-0.193 0.327,-0.175 0.638,-0.354 0.932,-0.538 0.076,-0.047 0.158,-0.093 0.231,-0.14 0.351,-0.227 0.675,-0.459 0.975,-0.696 0.075,-0.06 0.142,-0.12 0.215,-0.18 0.13,-0.108 0.267,-0.215 0.387,-0.324 z M 27.5,2 c 13.555,0 23,3.952 23,7.5 0,3.548 -9.445,7.5 -23,7.5 C 13.945,17 4.5,13.048 4.5,9.5 4.5,5.952 13.945,2 27.5,2 Z m 23,43.703 c -0.014,0.044 -0.024,0.089 -0.032,0.135 C 49.901,49.297 40.536,53 27.5,53 14.464,53 5.099,49.297 4.532,45.838 4.524,45.793 4.513,45.749 4.5,45.707 v -8.414 c 0.028,0.026 0.063,0.051 0.092,0.077 0.218,0.192 0.44,0.383 0.69,0.567 C 9.049,40.786 16.582,43 27.5,43 c 10.872,0 18.386,-2.196 22.169,-5.028 0.302,-0.22 0.574,-0.447 0.83,-0.678 L 50.5,37.293 Z"
         id="path1" /></g><g
       style="fill:#0091ff;fill-opacity:1"
       id="g2"
       transform="matrix(0.87078359,0,0,0.87078359,10.958572,15.438868)"><path
         d="M 52.354,8.51 C 51.196,4.22 42.577,0 27.5,0 12.423,0 3.803,4.22 2.646,8.51 2.562,8.657 2.5,8.818 2.5,9 V 9.5 21 21.5 22 33 33.5 34 46 c 0,0.162 0.043,0.315 0.117,0.451 C 3.798,51.346 14.364,55 27.5,55 40.606,55 51.155,51.361 52.375,46.484 52.455,46.341 52.5,46.176 52.5,46 V 34 33.5 33 22 21.5 21 9.5 9 c 0,-0.182 -0.062,-0.343 -0.146,-0.49 z m -1.933,25.475 c -0.028,0.121 -0.067,0.241 -0.116,0.363 -0.04,0.099 -0.089,0.198 -0.143,0.297 -0.067,0.123 -0.142,0.246 -0.231,0.369 -0.066,0.093 -0.141,0.185 -0.219,0.277 -0.111,0.131 -0.229,0.262 -0.363,0.392 -0.081,0.079 -0.17,0.157 -0.26,0.236 -0.164,0.143 -0.335,0.285 -0.526,0.426 -0.082,0.061 -0.17,0.12 -0.257,0.18 -0.226,0.156 -0.462,0.311 -0.721,0.463 -0.068,0.041 -0.141,0.08 -0.212,0.12 -0.298,0.168 -0.609,0.335 -0.945,0.497 -0.043,0.021 -0.088,0.041 -0.132,0.061 -0.375,0.177 -0.767,0.351 -1.186,0.519 -0.012,0.005 -0.024,0.009 -0.036,0.014 -2.271,0.907 -5.176,1.67 -8.561,2.17 -0.017,0.002 -0.034,0.004 -0.051,0.007 -0.658,0.097 -1.333,0.183 -2.026,0.259 -0.113,0.012 -0.232,0.02 -0.346,0.032 -0.605,0.063 -1.217,0.121 -1.847,0.167 -0.288,0.021 -0.59,0.031 -0.883,0.049 -0.474,0.028 -0.943,0.059 -1.429,0.076 C 29.137,40.984 28.327,41 27.5,41 26.673,41 25.863,40.984 25.068,40.956 24.582,40.939 24.113,40.907 23.639,40.88 23.346,40.863 23.044,40.852 22.756,40.831 22.126,40.785 21.514,40.727 20.909,40.664 20.795,40.652 20.676,40.644 20.563,40.632 19.87,40.556 19.195,40.469 18.537,40.373 18.52,40.371 18.503,40.369 18.486,40.366 15.101,39.866 12.196,39.103 9.925,38.196 9.913,38.192 9.901,38.187 9.889,38.182 9.47,38.014 9.077,37.84 8.703,37.663 8.66,37.642 8.614,37.622 8.571,37.602 8.235,37.44 7.924,37.274 7.626,37.105 7.556,37.065 7.482,37.026 7.414,36.985 7.155,36.833 6.919,36.678 6.693,36.522 6.607,36.462 6.518,36.403 6.436,36.342 6.245,36.201 6.074,36.059 5.91,35.916 5.821,35.838 5.731,35.76 5.65,35.68 5.516,35.55 5.398,35.42 5.287,35.288 5.209,35.196 5.134,35.104 5.068,35.011 4.98,34.888 4.905,34.765 4.837,34.642 4.783,34.543 4.735,34.444 4.694,34.345 4.645,34.224 4.606,34.103 4.578,33.982 4.541,33.823 4.5,33.661 4.5,33.5 4.5,33.387 4.513,33.274 4.531,33.162 4.556,33.011 4.542,32.86 4.5,32.717 v -7.424 c 0.028,0.026 0.063,0.051 0.092,0.077 0.218,0.192 0.44,0.383 0.69,0.567 C 9.049,28.786 16.582,31 27.5,31 c 10.872,0 18.386,-2.196 22.169,-5.028 0.302,-0.22 0.574,-0.447 0.83,-0.678 L 50.5,25.293 v 7.424 c -0.042,0.143 -0.056,0.294 -0.031,0.445 0.019,0.112 0.031,0.225 0.031,0.338 0,0.161 -0.041,0.323 -0.079,0.485 z M 50.5,13.293 v 7.424 c -0.042,0.143 -0.056,0.294 -0.031,0.445 0.019,0.112 0.031,0.225 0.031,0.338 0,0.161 -0.041,0.323 -0.079,0.485 -0.028,0.121 -0.067,0.241 -0.116,0.363 -0.04,0.099 -0.089,0.198 -0.143,0.297 -0.067,0.123 -0.142,0.246 -0.231,0.369 -0.066,0.093 -0.141,0.185 -0.219,0.277 -0.111,0.131 -0.229,0.262 -0.363,0.392 -0.081,0.079 -0.17,0.157 -0.26,0.236 -0.164,0.143 -0.335,0.285 -0.526,0.426 -0.082,0.061 -0.17,0.12 -0.257,0.18 -0.226,0.156 -0.462,0.311 -0.721,0.463 -0.068,0.041 -0.141,0.08 -0.212,0.12 -0.298,0.168 -0.609,0.335 -0.945,0.497 -0.043,0.021 -0.088,0.041 -0.132,0.061 -0.375,0.177 -0.767,0.351 -1.186,0.519 -0.012,0.005 -0.024,0.009 -0.036,0.014 -2.271,0.907 -5.176,1.67 -8.561,2.17 -0.017,0.002 -0.034,0.004 -0.051,0.007 -0.658,0.097 -1.333,0.183 -2.026,0.259 -0.113,0.012 -0.232,0.02 -0.346,0.032 -0.605,0.063 -1.217,0.121 -1.847,0.167 -0.288,0.021 -0.59,0.031 -0.883,0.049 -0.474,0.028 -0.943,0.059 -1.429,0.076 C 29.137,28.984 28.327,29 27.5,29 26.673,29 25.863,28.984 25.068,28.956 24.582,28.939 24.113,28.907 23.639,28.88 23.346,28.863 23.044,28.852 22.756,28.831 22.126,28.785 21.514,28.727 20.909,28.664 20.795,28.652 20.676,28.644 20.563,28.632 19.87,28.556 19.195,28.469 18.537,28.373 18.52,28.371 18.503,28.369 18.486,28.366 15.101,27.866 12.196,27.103 9.925,26.196 9.913,26.192 9.901,26.187 9.889,26.182 9.47,26.014 9.077,25.84 8.703,25.663 8.66,25.642 8.614,25.622 8.571,25.602 8.235,25.44 7.924,25.274 7.626,25.105 7.556,25.065 7.482,25.026 7.414,24.985 7.155,24.833 6.919,24.678 6.693,24.522 6.607,24.462 6.518,24.403 6.436,24.342 6.245,24.201 6.074,24.059 5.91,23.916 5.821,23.838 5.731,23.76 5.65,23.68 5.516,23.55 5.398,23.42 5.287,23.288 5.209,23.196 5.134,23.104 5.068,23.011 4.98,22.888 4.905,22.765 4.837,22.642 4.783,22.543 4.735,22.444 4.694,22.345 4.645,22.224 4.606,22.103 4.578,21.982 4.541,21.823 4.5,21.661 4.5,21.5 4.5,21.387 4.513,21.274 4.531,21.162 4.556,21.011 4.542,20.86 4.5,20.717 v -7.424 c 0.12,0.109 0.257,0.216 0.387,0.324 0.072,0.06 0.139,0.12 0.215,0.18 0.3,0.236 0.624,0.469 0.975,0.696 0.073,0.047 0.155,0.093 0.231,0.14 0.294,0.183 0.605,0.362 0.932,0.538 0.121,0.065 0.242,0.129 0.367,0.193 0.365,0.186 0.748,0.367 1.151,0.542 0.066,0.029 0.126,0.059 0.193,0.087 0.469,0.199 0.967,0.389 1.485,0.573 0.143,0.051 0.293,0.099 0.44,0.149 0.412,0.139 0.838,0.272 1.279,0.401 0.159,0.046 0.315,0.094 0.478,0.138 0.585,0.162 1.189,0.316 1.823,0.458 0.087,0.02 0.181,0.036 0.269,0.055 0.559,0.122 1.139,0.235 1.735,0.341 0.202,0.036 0.407,0.07 0.613,0.104 0.567,0.093 1.151,0.178 1.75,0.256 0.154,0.02 0.301,0.043 0.457,0.062 0.744,0.09 1.514,0.167 2.305,0.233 0.195,0.016 0.398,0.028 0.596,0.042 0.633,0.046 1.28,0.084 1.942,0.114 0.241,0.011 0.481,0.022 0.727,0.031 0.862,0.029 1.74,0.05 2.65,0.05 0.91,0 1.788,-0.021 2.65,-0.05 0.245,-0.009 0.485,-0.02 0.727,-0.031 0.662,-0.03 1.309,-0.068 1.942,-0.114 0.198,-0.015 0.4,-0.026 0.596,-0.042 0.791,-0.065 1.561,-0.143 2.305,-0.233 0.156,-0.019 0.303,-0.042 0.457,-0.062 0.599,-0.078 1.182,-0.163 1.75,-0.256 0.206,-0.034 0.411,-0.068 0.613,-0.104 0.596,-0.106 1.176,-0.219 1.735,-0.341 0.088,-0.019 0.182,-0.036 0.269,-0.055 0.634,-0.142 1.238,-0.297 1.823,-0.458 0.163,-0.045 0.319,-0.092 0.478,-0.138 0.441,-0.129 0.867,-0.262 1.279,-0.401 0.147,-0.05 0.297,-0.098 0.44,-0.149 0.518,-0.184 1.017,-0.374 1.485,-0.573 0.067,-0.028 0.127,-0.058 0.193,-0.087 0.403,-0.176 0.786,-0.356 1.151,-0.542 0.125,-0.064 0.247,-0.128 0.367,-0.193 0.327,-0.175 0.638,-0.354 0.932,-0.538 0.076,-0.047 0.158,-0.093 0.231,-0.14 0.351,-0.227 0.675,-0.459 0.975,-0.696 0.075,-0.06 0.142,-0.12 0.215,-0.18 0.13,-0.108 0.267,-0.215 0.387,-0.324 z M 27.5,2 c 13.555,0 23,3.952 23,7.5 0,3.548 -9.445,7.5 -23,7.5 C 13.945,17 4.5,13.048 4.5,9.5 4.5,5.952 13.945,2 27.5,2 Z m 23,43.703 c -0.014,0.044 -0.024,0.089 -0.032,0.135 C 49.901,49.297 40.536,53 27.5,53 14.464,53 5.099,49.297 4.532,45.838 4.524,45.793 4.513,45.749 4.5,45.707 v -8.414 c 0.028,0.026 0.063,0.051 0.092,0.077 0.218,0.192 0.44,0.383 0.69,0.567 C 9.049,40.786 16.582,43 27.5,43 c 10.872,0 18.386,-2.196 22.169,-5.028 0.302,-0.22 0.574,-0.447 0.83,-0.678 L 50.5,37.293 Z"
         id="path1-6"
         style="fill:#0091ff;fill-opacity:1" /></g><path
       id="text3"
       style="font-style:normal;font-variant:normal;font-weight:normal;font-stretch:normal;font-size:120px;font-family:Hack;-inkscape-font-specification:Hack;white-space:pre;shape-inside:url(#rect3);fill:#0091ff;fill-opacity:1;stroke-width:2"
       d="m 429.43507,109.82685 c -4.45312,0 -8.43751,0.60547 -11.95313,1.8164 -3.47656,1.21094 -6.46484,2.92969 -8.96484,5.15625 -5.27343,4.64844 -7.91016,10.93751 -7.91016,18.86719 0,6.28906 1.83594,11.26954 5.50781,14.94141 1.95313,1.99218 4.39454,3.65234 7.32422,4.98047 2.96875,1.32812 6.42579,2.4414 10.3711,3.33984 l 6.32812,1.46484 c 2.92969,0.66407 5.33204,1.40625 7.20703,2.22657 1.91406,0.82031 3.4961,1.875 4.7461,3.16406 2.26562,2.26562 3.39844,5.48828 3.39844,9.66797 0,5.03906 -1.66016,8.88672 -4.98047,11.54297 -3.35938,2.65624 -8.02735,3.98437 -14.00391,3.98437 -4.0625,0 -8.06641,-0.66406 -12.01172,-1.99219 -4.10156,-1.36718 -8.35938,-3.45703 -12.77344,-6.26953 v 12.59766 c 4.17969,1.71875 8.33985,3.02734 12.48047,3.92578 4.14062,0.89844 8.30079,1.34766 12.48047,1.34766 9.84374,0 17.32423,-2.18751 22.44141,-6.5625 2.38281,-2.03125 4.25781,-4.60938 5.625,-7.73438 1.36718,-3.16406 2.05078,-6.97266 2.05078,-11.42578 0,-7.0703 -1.89454,-12.61719 -5.68359,-16.64062 -3.82813,-4.17969 -9.78517,-7.18751 -17.8711,-9.02344 l -6.21094,-1.40625 c -5.70312,-1.32813 -9.66797,-3.04688 -11.89453,-5.15625 -1.01562,-0.97656 -1.8164,-2.12891 -2.40234,-3.45703 -0.54688,-1.36719 -0.82031,-3.04688 -0.82031,-5.03907 0,-4.5703 1.62109,-8.16406 4.86328,-10.78125 3.28124,-2.61718 7.71485,-3.92578 13.30078,-3.92578 3.63281,0 7.26563,0.58594 10.89844,1.75781 1.75781,0.58594 3.51562,1.3086 5.27343,2.16797 1.79688,0.82032 3.63282,1.83594 5.50782,3.04688 v -12.01172 c -2.07031,-0.78125 -4.10157,-1.44531 -6.09375,-1.99219 -1.95313,-0.58593 -3.82813,-1.07422 -5.625,-1.46484 -3.67187,-0.74219 -7.20704,-1.11328 -10.60547,-1.11328 z m 71.36719,0 c -9.76562,0 -17.08985,3.75 -21.97266,11.25 -4.84375,7.42186 -7.26563,18.80861 -7.26563,34.16015 -0.11718,14.96093 2.3047,26.32814 7.26563,34.10157 4.96093,7.73436 12.3047,11.48437 22.03125,11.25 0.11719,0 0.46875,-0.0195 1.05469,-0.0586 0.58593,-0.0391 0.97656,-0.0586 1.17187,-0.0586 l 18.22266,18.92578 h 13.82812 l -21.21093,-21.67969 c 2.77343,-1.40625 5.17578,-3.35937 7.20703,-5.85937 2.03125,-2.5 3.69141,-5.46876 4.98047,-8.90625 2.65624,-7.07031 3.98437,-16.30861 3.98437,-27.71485 0,-15.27342 -2.40235,-26.66016 -7.20703,-34.16015 -2.5,-3.90625 -5.60547,-6.75782 -9.31641,-8.55469 -3.71093,-1.79687 -7.96875,-2.69531 -12.77343,-2.69531 z m -244.68751,1.58203 v 87.48047 h 11.42578 v -72.01172 l 29.53125,72.01172 h 15 V 111.40888 H 300.646 v 72.01172 l -29.53125,-72.01172 z m 293.43751,0 v 87.48047 h 54.14062 v -9.96094 h -42.24609 v -77.51953 z m -48.75,8.02734 c 6.01562,0 10.35156,2.75391 13.00781,8.26172 2.61718,5.39062 3.92578,14.57033 3.92578,27.53906 0,12.96874 -1.3086,22.12892 -3.92578,27.48047 -2.65625,5.50781 -6.99219,8.26172 -13.00781,8.26172 -5.9375,0 -10.23438,-2.75391 -12.89063,-8.26172 -2.65625,-5.62499 -3.98437,-14.78517 -3.98437,-27.48047 0,-12.73436 1.32812,-21.91406 3.98437,-27.53906 2.65625,-5.50781 6.95313,-8.26172 12.89063,-8.26172 z m -144.4336,12.2461 c -9.06249,0 -16.01563,2.96875 -20.85937,8.90625 -4.84375,5.93749 -7.26563,14.47266 -7.26563,25.60547 0,11.09373 2.40235,19.60938 7.20703,25.54687 4.84375,5.89843 11.83595,8.84766 20.97656,8.84766 9.0625,0 15.9961,-2.9297 20.80079,-8.78907 4.80468,-5.89843 7.20703,-14.41407 7.20703,-25.54687 0,-11.21093 -2.42188,-19.76563 -7.26563,-25.66406 -4.80468,-5.9375 -11.73829,-8.90625 -20.80078,-8.90625 z m 0,9.14062 c 5.35156,0 9.45313,2.18751 12.30469,6.5625 2.89062,4.33593 4.33594,10.56642 4.33594,18.69141 0,8.16405 -1.44532,14.4336 -4.33594,18.80859 -2.85156,4.375 -6.95313,6.5625 -12.30469,6.5625 -5.35156,0 -9.47266,-2.1875 -12.36328,-6.5625 -2.89062,-4.37499 -4.33594,-10.64454 -4.33594,-18.80859 0,-8.12499 1.42579,-14.35548 4.27735,-18.69141 2.89062,-4.37499 7.03125,-6.5625 12.42187,-6.5625 z"
       transform="matrix(0.26458333,0,0,0.26458333,-0.16006873,-1.0461093)" /></g></svg>
