<?xml version="1.0" encoding="UTF-8" standalone="no"?>
<!-- Created with Inkscape (http://www.inkscape.org/) -->

<svg
   width="76.728645mm"
   height="25.894028mm"
   viewBox="0 0 76.728645 25.894028"
   version="1.1"
   id="svg1"
   xmlns="http://www.w3.org/2000/svg"
   xmlns:svg="http://www.w3.org/2000/svg">
  <defs
     id="defs1">
    <rect
       x="19.328468"
       y="378.09442"
       width="758.52087"
       height="408.7056"
       id="rect1" />
  </defs>
  <g
     id="layer1"
     transform="translate(-8.5359127,-106.59453)">
    <path
       id="text1"
       style="font-size:133.333px;white-space:pre;shape-inside:url(#rect1);fill:#000000;fill-opacity:1;stroke-width:2"
       d="m 214.79492,402.87696 c -5.95553,0 -11.24498,0.97804 -15.86718,2.93359 -4.53332,1.95555 -8.08825,4.75596 -10.66602,8.40039 -2.57777,3.55555 -3.86719,7.86695 -3.86719,12.9336 0,7.37775 2.04394,13.19819 6.13282,17.46484 4.17776,4.26665 10.31153,7.86746 18.40039,10.80078 5.77775,2.04444 10.26681,4.00053 13.46679,5.86719 3.28888,1.77777 5.60027,3.73191 6.9336,5.86523 1.33333,2.13333 2,4.75609 2,7.86719 0,4.7111 -1.82237,8.44563 -5.4668,11.20117 -3.55554,2.75555 -8.88891,4.13282 -16,4.13282 -5.06665,0 -10.0008,-0.57883 -14.80078,-1.73438 -4.7111,-1.15555 -8.6672,-2.44302 -11.86719,-3.86523 v 11.46679 c 3.02221,1.42222 6.80067,2.53204 11.33399,3.33204 4.53331,0.79999 9.46746,1.20117 14.80078,1.20117 10.39996,0 18.66551,-2.35532 24.79883,-7.06641 6.13331,-4.71109 9.20117,-11.28996 9.20117,-19.73437 0,-4.97776 -1.02197,-9.11152 -3.06641,-12.4004 -1.95555,-3.28887 -4.88968,-6.08733 -8.80078,-8.39843 -3.82221,-2.39999 -8.53283,-4.62353 -14.13281,-6.66797 -5.15554,-1.95555 -9.24537,-3.77792 -12.26758,-5.4668 -3.02221,-1.68888 -5.19988,-3.5991 -6.5332,-5.73242 -1.33333,-2.13333 -2,-4.80001 -2,-8 0,-4.17776 1.51099,-7.51112 4.5332,-10 3.02221,-2.57777 7.51126,-3.86719 13.4668,-3.86719 4.17776,0 8.17779,0.48902 12,1.4668 3.91109,0.97777 7.5119,2.17739 10.80078,3.59961 l 3.73242,-10.26563 c -3.55554,-1.59999 -7.51165,-2.88941 -11.86719,-3.86718 -4.35554,-0.97778 -9.15401,-1.4668 -14.39844,-1.4668 z m -182.533201,1.33398 v 95.19922 h 12 v -39.33398 h 18.933594 l 23.066407,39.33398 h 14 L 74.128907,456.74415 c 3.199989,-1.15556 6.221972,-2.71242 9.066407,-4.66797 2.933322,-2.04444 5.332558,-4.75505 7.199218,-8.13282 1.86666,-3.37776 2.800782,-7.59936 2.800782,-12.66601 0,-9.06664 -2.844335,-15.82315 -8.533204,-20.26758 -5.59998,-4.53332 -14.312585,-6.79883 -26.134766,-6.79883 z m 82.933591,0 v 95.19922 h 53.19922 v -10.5332 h -41.19922 v -34 h 38.79883 v -10.40039 h -38.79883 v -29.73242 h 41.19922 v -10.53321 z m 135.73243,0 v 10.53321 h 29.73242 v 84.66601 h 12 v -84.66601 h 29.59961 V 404.21094 Z M 44.261719,414.60938 h 13.59961 c 7.822194,0 13.600664,1.33334 17.333984,4 3.733321,2.57777 5.59961,6.97897 5.59961,13.20117 0,5.95554 -1.778442,10.48851 -5.333985,13.59961 -3.555542,3.02221 -9.200288,4.53321 -16.933594,4.53321 H 44.261719 Z"
       transform="scale(0.26458333)" />
  </g>
</svg>
